<svg xmlns="http://www.w3.org/2000/svg" width="126.387" height="126.153" viewBox="0 0 33.44 33.378" xmlns:v="https://vecta.io/nano"><path d="M16.818.084a16.62 16.622.309 0 0-1.426.059l-.014 2.634-.012 2.321-.01 1.862-.004.671a9.183 9.183.309 0 1 1.426-.109 9.183 9.183.309 0 1 9.009 7.686l-2.275-.012a6.951 6.951 0 0 0-6.746-5.441 6.951 6.951 0 0 0-1.427.143l-.016 2.948a4.112 4.112 0 0 1 5.517 3.881 4.112 4.112 0 0 1-.193 1.22l2.913.016 2.255.012 2.101.011.438.002a11.695 11.695.309 0 0-10.55-12.929l.012-2.311A14.001 14.003.309 0 1 30.729 16.78a14.001 14.003.309 0 1-.064 1.221l2.626.014a16.62 16.622.309 0 0 .056-1.221A16.62 16.622.309 0 0 16.817.083zm-.079 14.627a1.994 1.994.309 1 0-.022 3.989 1.994 1.994.309 1 0 .022-3.989z" fill="#9cc000"/><path d="M13.127 5.585a11.695 11.695.309 0 0 3.538 22.815 11.695 11.695.309 0 0 11.121-7.889l-2.7-.015a9.183 9.183.309 0 1-17.541-3.842 9.183 9.183.309 0 1 5.567-8.384z" fill="#0e79a2"/></svg>