<svg xmlns="http://www.w3.org/2000/svg" version="1.1" xmlns:xlink="http://www.w3.org/1999/xlink" xmlns:svgjs="http://svgjs.com/svgjs" width="130.04414mm" height="130.07823mm"><svg width="130.04414mm" height="130.07823mm" viewBox="0 0 130.04414 130.07823" version="1.1" id="SvgjsSvg1005" inkscape:version="1.2.2 (732a01da63, 2022-12-09, custom)" sodipodi:docname="favicon.svg" xmlns:inkscape="http://www.inkscape.org/namespaces/inkscape" xmlns:sodipodi="http://sodipodi.sourceforge.net/DTD/sodipodi-0.dtd" xmlns="http://www.w3.org/2000/svg" xmlns:svg="http://www.w3.org/2000/svg">
  <sodipodi:namedview id="SvgjsSodipodi:namedview1004" pagecolor="#ffffff" bordercolor="#000000" borderopacity="0.25" inkscape:showpageshadow="2" inkscape:pageopacity="0.0" inkscape:pagecheckerboard="0" inkscape:deskcolor="#d1d1d1" inkscape:document-units="mm" showgrid="false" inkscape:zoom="0.89352553" inkscape:cx="162.27852" inkscape:cy="565.73649" inkscape:window-width="2145" inkscape:window-height="1205" inkscape:window-x="2019" inkscape:window-y="126" inkscape:window-maximized="0" inkscape:current-layer="layer1"></sodipodi:namedview>
  <defs id="SvgjsDefs1003"></defs>
  <g inkscape:label="Layer 1" inkscape:groupmode="layer" id="SvgjsG1002">
    <path id="SvgjsPath1001" style="fill:#9cc000;fill-opacity:1;stroke:#000000;stroke-width:0;stroke-linejoin:miter;stroke-dasharray:none" d="m 53.824476,9.9603493 a 73.902276,63.42914 2.8418651 0 0 -6.336184,0.1970527 l 0.04002,10.053675 0.03542,8.862365 0.02801,7.108578 0.0085,2.56192 a 40.834786,35.044503 2.8402245 0 1 6.336346,-0.382117 40.834786,35.044503 2.8402245 0 1 40.346839,29.563423 L 84.169939,67.822479 a 30.908838,26.526039 2.8402408 0 0 -30.199461,-20.93781 30.908838,26.526039 2.8402408 0 0 -6.335812,0.513197 l 0.04482,11.254881 a 18.28325,15.690728 2.8402393 0 1 6.334156,-0.92862 18.28325,15.690728 2.8402393 0 1 18.338742,15.880813 18.28325,15.690728 2.8402393 0 1 -0.810941,4.653692 l 12.95082,0.130936 10.022045,0.101482 9.338342,0.09441 1.94444,0.01507 A 52.003381,44.629418 2.8402285 0 0 106.06217,73.941035 52.003381,44.629418 2.8402285 0 0 58.395478,28.984084 L 58.3605,20.160958 a 62.257569,53.434667 2.8418536 0 1 57.95252,53.883853 62.257569,53.434667 2.8418536 0 1 -0.23613,4.659505 l 11.67518,0.11869 A 73.902276,63.42914 2.8418651 0 0 127.95403,74.163215 73.902276,63.42914 2.8418651 0 0 53.824113,9.9618199 Z m 0.221798,55.8391547 a 8.8677877,7.6103561 2.8402259 0 0 -8.833378,7.524984 8.8677877,7.6103561 2.8402259 0 0 8.893846,7.701739 8.8677877,7.6103561 2.8402259 0 0 8.833442,-7.522318 8.8677877,7.6103561 2.8402259 0 0 -8.89391,-7.704405 z"></path>
    <path id="SvgjsPath1000" style="fill:#0e79a2;fill-opacity:1;stroke:#000000;stroke-width:0;stroke-linejoin:miter;stroke-dasharray:none" d="M 37.633994,30.873186 A 52.003381,44.629418 2.8402285 0 0 2.0903241,72.888113 52.003381,44.629418 2.8402285 0 0 54.253928,118.0601 52.003381,44.629418 2.8402285 0 0 103.3767,88.215502 L 91.375463,88.093597 A 40.834786,35.044503 2.8402245 0 1 54.2158,108.47017 40.834786,35.044503 2.8402245 0 1 13.256342,73.000681 40.834786,35.044503 2.8402245 0 1 37.674599,41.127804 Z"></path>
  </g>
</svg><style>@media (prefers-color-scheme: light) { :root { filter: none; } }
@media (prefers-color-scheme: dark) { :root { filter: contrast(0.8333333333333334) brightness(1.7); } }
</style></svg>