<?xml version="1.0" encoding="UTF-8" standalone="no"?>
<svg
   width="257"
   height="36"
   viewBox="0 0 257 36"
   fill="none"
   version="1.1"
   id="svg154"
   sodipodi:docname="logo.svg"
   inkscape:version="1.2.2 (732a01da63, 2022-12-09, custom)"
   xmlns:inkscape="http://www.inkscape.org/namespaces/inkscape"
   xmlns:sodipodi="http://sodipodi.sourceforge.net/DTD/sodipodi-0.dtd"
   xmlns="http://www.w3.org/2000/svg"
   xmlns:svg="http://www.w3.org/2000/svg">
  <defs
     id="defs158" />
  <sodipodi:namedview
     id="namedview156"
     pagecolor="#ffffff"
     bordercolor="#000000"
     borderopacity="0.25"
     inkscape:showpageshadow="2"
     inkscape:pageopacity="0.0"
     inkscape:pagecheckerboard="0"
     inkscape:deskcolor="#d1d1d1"
     showgrid="false"
     inkscape:zoom="3.3735409"
     inkscape:cx="128.5"
     inkscape:cy="18.230104"
     inkscape:window-width="1920"
     inkscape:window-height="1163"
     inkscape:window-x="0"
     inkscape:window-y="0"
     inkscape:window-maximized="1"
     inkscape:current-layer="svg154" />
  <path
     d="M-1.57361e-06 18C-1.78026e-06 15.6362 0.465582 13.2956 1.37016 11.1117C2.27475 8.92784 3.60062 6.94354 5.27207 5.27208C6.94353 3.60063 8.92783 2.27476 11.1117 1.37017C13.2956 0.465586 15.6362 1.78026e-06 18 1.57361e-06C20.3638 1.36696e-06 22.7044 0.465585 24.8883 1.37017C27.0722 2.27475 29.0565 3.60062 30.7279 5.27208C32.3994 6.94353 33.7252 8.92784 34.6298 11.1117C35.5344 13.2956 36 15.6362 36 18L27 18C27 16.8181 26.7672 15.6478 26.3149 14.5558C25.8626 13.4639 25.1997 12.4718 24.364 11.636C23.5282 10.8003 22.5361 10.1374 21.4441 9.68509C20.3522 9.23279 19.1819 9 18 9C16.8181 9 15.6478 9.23279 14.5558 9.68509C13.4639 10.1374 12.4718 10.8003 11.636 11.636C10.8003 12.4718 10.1374 13.4639 9.68508 14.5559C9.23279 15.6478 9 16.8181 9 18L-1.57361e-06 18Z"
     fill="#FFFAF3"
     id="path150" />
  <path
     id="path45725"
     style="fill:#9cc000;fill-opacity:1;stroke:#000000;stroke-width:0;stroke-linejoin:miter;stroke-dasharray:none"
     d="m 35.070069,6.839508 a 14.7481,44.708399 88.73494 0 0 -3.832504,0.0037 l -0.73924,2.339034 -0.651602,2.061872 -0.52286,1.653838 -0.189381,0.59603 a 8.1483103,24.70365 88.735391 0 1 3.846641,-0.04676 8.1483103,24.70365 88.735391 0 1 22.064155,7.14551 l -6.085627,-0.09116 a 6.1676552,18.698794 88.735391 0 0 -16.605292,-5.071489 6.1676552,18.698794 88.735391 0 0 -3.85626,0.07727 l -0.82756,2.618499 a 3.6483016,11.060743 88.73539 0 1 3.886809,-0.173911 3.6483016,11.060743 88.73539 0 1 9.843227,3.81624 3.6483016,11.060743 88.73539 0 1 -0.841937,1.077189 l 7.79289,0.116551 6.030563,0.09024 5.619149,0.08403 1.170393,0.01645 A 10.37693,31.460271 88.735391 0 0 61.685139,22.070522 10.37693,31.460271 88.735391 0 0 36.379606,11.29538 l 0.648862,-2.052737 a 12.424255,37.663742 88.734941 0 1 30.824923,12.920169 12.424255,37.663742 88.734941 0 1 -0.496074,1.08236 l 7.025246,0.105222 a 14.7481,44.708399 88.73494 0 0 0.475525,-1.082699 14.7481,44.708399 88.73494 0 0 -39.78836,-15.42787 z m -4.106186,12.99123 a 1.7695085,5.3647091 88.73539 0 0 -5.893462,1.691801 1.7695085,5.3647091 88.73539 0 0 4.773731,1.850767 1.7695085,5.3647091 88.73539 0 0 5.893283,-1.691179 1.7695085,5.3647091 88.73539 0 0 -4.773552,-1.851389 z" />
  <path
     id="path45727"
     style="fill:#0e79a2;fill-opacity:1;stroke:#000000;stroke-width:0;stroke-linejoin:miter;stroke-dasharray:none"
     d="M 23.727449,11.596786 A 10.37693,31.460271 88.735391 0 0 -0.87767359,21.134343 10.37693,31.460271 88.735391 0 0 27.120884,31.989408 10.37693,31.460271 88.735391 0 0 58.983321,25.373287 L 51.761842,25.265134 A 8.1483103,24.70365 88.735391 0 1 27.82606,29.758263 8.1483103,24.70365 88.735391 0 1 5.8412799,21.234762 8.1483103,24.70365 88.735391 0 1 22.973286,13.982568 Z" />
  <text
     xml:space="preserve"
     style="font-size:35.6148px;font-family:'Abyssinica SIL';-inkscape-font-specification:'Abyssinica SIL';fill:#0e79a2;fill-opacity:1;stroke:#000000;stroke-width:0"
     x="76.66217"
     y="32.000034"
     id="text45739"><tspan
       sodipodi:role="line"
       id="tspan45737"
       style="font-style:normal;font-variant:normal;font-weight:normal;font-stretch:normal;font-family:'Amerika Sans';-inkscape-font-specification:'Amerika Sans';fill:#0e79a2;fill-opacity:1;stroke-width:0"
       x="76.66217"
       y="32.000034">Cloud</tspan></text>
  <text
     xml:space="preserve"
     style="font-style:normal;font-variant:normal;font-weight:normal;font-stretch:normal;font-size:35.6148px;font-family:'Amerika Sans';-inkscape-font-specification:'Amerika Sans';fill:#9cc000;fill-opacity:1;stroke:#000000;stroke-width:0"
     x="176.88618"
     y="31.964382"
     id="text45743"><tspan
       sodipodi:role="line"
       id="tspan45741"
       style="fill:#9cc000;fill-opacity:1;stroke-width:0"
       x="176.88618"
       y="31.964382">Alert</tspan></text>
</svg>
