<svg xmlns="http://www.w3.org/2000/svg" width="544.154" height="71.494" viewBox="0 0 143.974 18.916" xmlns:v="https://vecta.io/nano"><path d="M21.005 2.618a8.073 24.474 88.735 0 0-2.098.002l-.405 1.28-.357 1.129-.286.905-.104.326a4.46 13.523 88.735 0 1 2.106-.026 4.46 13.523 88.735 0 1 12.078 3.911l-3.331-.05a3.376 10.236 88.735 0 0-9.09-2.776 3.376 10.236 88.735 0 0-2.111.042l-.453 1.433a1.997 6.055 88.735 0 1 2.128-.095 1.997 6.055 88.735 0 1 5.388 2.089 1.997 6.055 88.735 0 1-.461.59l4.266.064 3.301.049 3.076.046.641.009a5.68 17.221 88.735 0 0 .281-.592 5.68 17.221 88.735 0 0-13.852-5.898l.355-1.124a6.801 20.617 88.735 0 1 16.874 7.073 6.801 20.617 88.735 0 1-.272.592l3.846.058a8.073 24.474 88.735 0 0 .26-.593 8.073 24.474 88.735 0 0-21.78-8.445zM18.758 9.73a.969 2.937 88.735 0 0-3.226.926.969 2.937 88.735 0 0 2.613 1.013.969 2.937 88.735 0 0 3.226-.926.969 2.937 88.735 0 0-2.613-1.013z" fill="#9cc000"/><path d="M14.796 5.223a5.68 17.221 88.735 0 0-13.469 5.221 5.68 17.221 88.735 0 0 15.327 5.942 5.68 17.221 88.735 0 0 17.442-3.622l-3.953-.059a4.46 13.523 88.735 0 1-13.103 2.46 4.46 13.523 88.735 0 1-12.035-4.666 4.46 13.523 88.735 0 1 9.378-3.97zm42.721 8.497q-.936.624-1.95.955-.994.331-2.028.331-1.423 0-2.593-.468-1.15-.468-1.969-1.306-.819-.858-1.267-2.028-.429-1.17-.429-2.593 0-1.228.351-2.281.37-1.072 1.033-1.833.682-.78 1.657-1.209.975-.448 2.203-.448 1.072.058 1.833.214.76.156 1.306.37.565.195.994.429.429.234.877.429.058-.37.117-.858.078-.487.136-.78-1.345-.468-2.71-.702-1.365-.253-2.593-.253-1.56 0-2.944.507-1.384.487-2.437 1.443-1.033.936-1.657 2.3-.604 1.365-.604 3.1 0 1.774.624 3.158.643 1.365 1.735 2.3 1.092.936 2.554 1.423 1.462.468 3.119.468.468 0 1.053-.078.604-.097 1.209-.253.624-.156 1.209-.37.604-.214 1.072-.487zm1.619-2.495V1.75h2.242v10.079q0 .936.273 1.579.292.624.721 1.033.448.39.994.565.546.175 1.072.195v1.15q-2.515-.058-3.919-1.423-1.384-1.365-1.384-3.704zm10.761-4.562q-1.345 0-2.3.409-.955.409-1.56 1.092-.604.663-.897 1.54-.292.877-.312 1.833.039.975.331 1.852.292.877.897 1.56.604.663 1.54 1.053.955.39 2.3.39 1.287 0 2.184-.39.916-.39 1.501-1.033.585-.663.858-1.54.292-.897.331-1.891-.039-.955-.331-1.833-.292-.877-.877-1.54-.585-.682-1.482-1.092-.897-.409-2.184-.409zm-2.827 5.205v-.682q0-.975.195-1.618.195-.663.546-1.053.37-.39.877-.546.507-.175 1.111-.156.604-.019 1.111.136.507.156.858.546.37.39.565 1.053.195.663.195 1.638v.682q0 .975-.195 1.638-.195.663-.565 1.053-.351.39-.858.546-.507.156-1.111.136-.604.02-1.111-.136-.507-.175-.877-.565-.351-.39-.546-1.033-.195-.663-.195-1.638zm11.6 0V6.624h-2.242v4.64q0 1.189.253 2.145.273.936.838 1.599.585.663 1.501 1.033.916.351 2.223.351 2.359 0 3.607-1.365 1.267-1.384 1.267-3.763v-4.64h-2.242v5.244q0 .975-.195 1.638-.195.663-.565 1.053-.351.39-.858.546-.507.156-1.111.136-.604.02-1.072-.136-.468-.175-.78-.565-.312-.39-.468-1.033-.156-.663-.156-1.638zm19.047-.351q0-.02 0-.448 0-.429 0-1.15 0-.721 0-1.657 0-.955 0-2.028 0-1.072 0-2.223 0-1.15 0-2.262h-2.242l-.039 5.459q-.565-.273-1.248-.468-.663-.214-1.54-.214-1.287 0-2.184.37-.897.351-1.482 1.014-.585.643-.877 1.56-.292.916-.331 2.047.039 1.131.331 2.028.292.897.877 1.54.585.624 1.482.975.897.331 2.184.331 1.345 0 2.281-.331.955-.351 1.56-.975.604-.643.897-1.54.292-.897.331-2.028zm-2.242-.331v.682q0 .975-.195 1.638-.195.643-.565 1.033-.351.39-.858.565-.507.156-1.111.136-.604.02-1.111-.136-.507-.156-.877-.546-.351-.39-.546-1.053-.195-.663-.195-1.638v-.682q0-.975.195-1.657.195-.682.546-1.092.37-.429.877-.604.507-.175 1.111-.156.604-.019 1.111.175.507.175.858.604.37.409.565 1.092.195.663.195 1.638z" fill="#0e79a2"/><path d="M101.989 9.88h6.804q0 1.189 0 2.3 0 1.092 0 1.969 0 .877 0 1.482 0 .585-.019.741h2.281l-.019-9.494q0-1.189-.37-2.125-.37-.955-1.092-1.618-.721-.663-1.755-1.014-1.033-.37-2.339-.37-2.788 0-4.27 1.384-1.462 1.365-1.462 3.743 0 2.32 0 4.036 0 1.716 0 2.885 0 1.15-.019 1.794 0 .624-.019.78h2.3zm0-3.607q0-.975.292-1.618.312-.663.799-1.053.487-.39 1.092-.546.604-.175 1.209-.156.604-.019 1.209.136.624.156 1.111.546.487.39.78 1.053.312.663.312 1.638v2.71h-6.804zm10.82 4.932V1.731h2.242V11.81q0 .936.273 1.579.292.624.721 1.033.448.39.994.565.546.175 1.072.195v1.15q-2.515-.058-3.919-1.423-1.384-1.365-1.384-3.704zm15.071.917q0-.117 0-.292.019-.195.019-.292.039-.955-.292-1.813-.331-.877-.955-1.521-.624-.663-1.501-1.033-.877-.39-1.95-.409-1.014.039-1.872.429-.858.39-1.501 1.053-.624.643-.975 1.501-.351.858-.351 1.833.039 1.053.409 1.93.39.877 1.033 1.521.643.624 1.501.975.877.351 1.911.351.682.039 1.306-.195.624-.234 1.228-.507l-.156-.643q-1.228.331-1.95.331-.877 0-1.462-.312-.585-.312-.955-.78-.351-.468-.526-1.033-.156-.565-.214-1.092zm-4.757-4.25h.039q1.072 0 1.755.721.682.721.838 2.32h-5.108q.058-.585.234-1.131.175-.546.468-.955.312-.429.741-.682.448-.273 1.033-.273zm12.184-1.248q-2.788 0-4.27 1.384-1.462 1.365-1.462 3.743v4.62h2.242v-5.4q0-.975.292-1.618.312-.663.799-1.053.487-.39 1.092-.546.604-.175 1.209-.156.234 0 .487.019.253 0 .487.039V6.643q-.214-.019-.448-.019-.214 0-.429 0zm7.76-.039h-2.262V1.75h-2.164v4.835h-2.281v1.131h2.281v8.676h2.164V7.716h2.262z" fill="#9cc000"/></svg>